<svg height="500pt" preserveAspectRatio="xMidYMid meet" viewBox="0 0 500 500" width="500pt" xmlns="http://www.w3.org/2000/svg"><g transform="matrix(.1 0 0 -.1 0 500)"><path d="m1885 4377c-55-19-129-47-165-64s-90-43-120-56c-30-14-71-41-91-59-37-34-129-151-149-189-25-46-80-227-91-298-21-140 3-354 56-496 16-42 22-76 20-115-4-66 6-110 57-254 55-154 62-165 117-188 44-19 51-27 94-112 61-118 68-168 34-227-14-24-45-82-69-129l-43-85-50-8c-55-9-123-35-328-126-76-33-197-81-268-105-154-54-325-125-394-166-27-16-69-38-92-49-51-24-65-51-88-166-13-67-19-153-22-340-3-231-2-258 19-355l23-105 85-43c104-51 355-151 470-185 222-67 432-111 685-143 242-32 814-24 998 12 27 6 38 36 18 48-10 6-45 185-38 192 2 3 7-8 10-24 3-17 12-29 21-29 10 0 12 4 7 11-5 6-12 31-16 56-8 51-26 100-38 100-4 0-4 12-1 26 4 17 3 25-3 21-10-6-22 54-28 141-7 89 59-22 70-118 12-103 14-115 46-225 45-157 53-178 68-183 19-6 8 64-19 122-26 58-35 96-21 96 6 0 11-6 12-12 1-26 7-47 18-65 9-15 10-13 6 12-3 17-7 53-9 80-6 72-7 72-15 50-5-13-8-1-8 35 0 30-6 84-12 119s-10 66-7 68c8 8 66-298 71-377 8-122 9-123 58-115 65 11 312 73 407 102 399 122 840 361 1090 590l56 51-3 112c-2 65-8 118-14 126-14 17-39 145-39 201 0 41-56 166-101 224l-19 24 12-35c6-19 24-57 39-85 35-64 57-161 41-177-9-9-12-6-12 13 0 30-84 236-106 260-9 10-26 19-37 21-17 2-27 21-52 96-28 87-32 93-70 112-72 34-318 107-420 124-55 9-118 21-141 26s-72 12-110 15c-65 6-168 24-359 61-44 9-90 22-101 29-12 8-38 43-58 79s-41 68-46 71c-16 10-12-49 5-71 27-35 15-481-16-609-5-22-14-87-19-145-9-111-16-143-31-134-5 3-9 0-9-5 0-6 5-11 10-11 6 0 10-10 9-22v-23l-9 22c-6 14-24 26-50 33-71 19-75 15-77-75 0-44 4-86 9-93 18-21 0-27-22-7-39 35-30 85 70 385 73 219 134 465 128 519-2 25-13 1-47-111-52-173-91-253-153-318-53-57-90-71-118-45-10 9-16 23-13 31s0 14-7 14-10 7-6 15c3 8 0 15-6 15-9 0-9 3 0 12 17 17 15 31-3 25-14-6-27 6-31 28-1 6-5 18-9 27-5 13 2 21 33 35 44 19 58 44 39 74-9 15-7 22 13 39 23 20 23 22 7 31-34 20-12 89 44 139 128 114 249 253 249 286 0 6 13 43 29 83 17 39 26 71 21 71s-12-11-16-25c-5-22-21-31-47-26-5 1-6-3-2-9 3-5 2-10-4-10s-7-8-4-17c6-16 5-16-10-4-14 11-18 11-23-2-3-9-3-21 1-26 3-7 0-8-9-5-11 4-16 0-16-10 0-9-4-16-10-16-5 0-10-9-10-20s-4-20-10-20c-5 0-10-9-10-19 0-28-10-51-23-51-7 0-7 4 1 12 7 7 12 19 12 27 0 10-8 4-20-14-11-16-20-24-20-17s-5 10-10 7c-6-3-14 4-19 17-6 13-10 17-10 11-1-21-21-14-21 7 0 14-7 20-22 20-17 0-19-3-10-12 15-15 16-32 2-23-6 3-14-4-19-17l-10-23v24c-1 15-6 21-14 18-7-3-19 4-25 14-10 15-9 19 0 19 7 0 5 5-5 11-9 5-22 7-28 4-14-9-39 14-39 36 0 11 11 24 24 30 16 8 26 22 30 47 3 20 3 38 0 41-2 3-35 7-72 9s-82 11-101 19c-32 15-33 17-16 29 10 8 35 16 54 19 20 3 55 10 79 15 53 13 138 13 160 1 25-13 131-21 137-10 3 5 3 24 0 43-5 25-13 36-31 40-14 4-22 11-19 16 3 6 2 10-3 10s-22 12-37 26-31 21-34 16c-8-12-71-3-71 10 0 6-7 7-16 4-8-3-29 1-46 10-16 8-37 12-46 8-38-16-51-12-41 13 7 18 4 26-18 40-14 10-44 35-66 55-33 32-38 42-32 65 8 35 8 52-3 133-12 79-23 123-32 130-5 3-18 27-31 54-26 53-53 67-151 81-26 3-54 12-61 18-7 7-21 17-32 23-29 16-29 33-1 40 14 3 26 10 26 16 0 31-23 155-31 162-11 12-12 67-1 82 15 21 78 63 107 70 17 4 35 11 41 15 22 18 184 78 232 87 67 12 155 6 194-13 82-40 197-173 228-264 11-34 32-92 46-129 31-83 91-307 114-427l17-90 4 52c2 29 0 67-5 85-15 57-19 138-7 138 6 0 11 9 11 20s4 20 9 20c4 0 11 53 14 118 3 64 11 133 16 152 6 19 15 73 20 119 8 71 6 94-11 155-44 161-139 300-235 347-37 18-70 24-155 27l-109 5-47 42c-59 53-114 81-194 100-89 21-120 19-233-18zm410-117c3-6-1-7-9-4-18 7-21 14-7 14 6 0 13-4 16-10zm-398-1216c-3-20 0-28 14-31 24-7 48-59 44-98-4-49-5-51-15-35-8 12-10 12-10 1 0-7-15-30-33-50-28-32-39-37-67-33-38 4-59 26-60 60 0 13-9 35-20 49-21 28-26 53-10 53 6 0 10 8 11 18 1 30 34 76 60 83 13 4 39 7 58 8 31 1 33-1 28-25zm-420-166c-3-8-6-5-6 6-1 11 2 17 5 13 3-3 4-12 1-19zm913-68c7 11 10 11 10 2 0-7 5-10 10-7 6 3 10 1 10-5s5-8 10-5c6 3 10 0 11-7 0-7 4-4 9 7s9 14 9 8c1-7 7-13 14-13 17 0 57-37 57-53 0-7-4-6-10 3-9 14-15 7-11-14 1-4-18-5-41-1-24 4-88 8-143 9-125 3-135 4-135 16 0 6 20 10 45 10 31 0 55 7 74 21 16 12 34 18 40 15 6-4 11 0 11 11 0 15 2 16 10 3 9-13 11-13 20 0zm-170-407c-1-27-1-27-15-9-19 25-19 36 0 36 10 0 15-10 15-27zm606-208c20-48 17-57-6-15-20 36-24 50-14 50 3 0 12-16 20-35zm-1003-219c67-71 57-61 127-127 30-28 71-61 90-74s62-51 95-85c92-96 119-120 155-138 49-25 70-60 82-138 13-87 33-129 80-167 54-43 64-120 22-162-15-15-18-15-35 1-11 10-26 40-34 67-18 61-18 60-3 51 7-5 8-3 2 7-4 8-10 22-11 33-3 16-1 17 12 6 12-10 15-10 15 1 0 17-37 42-64 44-28 3-68 53-61 76 4 11 2 19-4 19s-11 5-11 11c0 5 5 7 10 4 6-3 10-2 10 4 0 5-4 13-10 16-5 3-10 1-10-4 0-17-30-13-36 4-4 8-12 15-20 15-17 0-18 12-2 28 9 9 8 12-5 12-23 0-21 21 3 48 11 11 16 23 11 26-12 8-38-15-54-46-13-25-16-26-33-13-10 8-39 29-63 47-45 34-160 190-208 283-14 28-31 57-38 65-18 20-115 204-115 216 1 5 11-9 23-30 12-22 48-67 80-100zm318-223c28 11 32 10 64-28 31-38 36-55 14-55-5 0-9 8-10 18 0 12-2 13-6 3-3-8 2-20 11-27 10-7 13-15 7-18-11-7-131 101-131 118 0 6 5 4 10-6 9-14 15-14 41-5zm231-218c25-2 31-10 23-34-7-24-25-28-25-6 0 8-3 15-8 15-4 0-13 9-20 21-11 17-11 20 0 13 7-4 21-9 30-9zm-201-222c13-15 12-15-8-4-24 12-29 21-14 21 5 0 15-7 22-17zm476-75c-3-7-5-2-5 12s2 19 5 13c2-7 2-19 0-25zm-57-32c0 5 5 1 11-8 5-10 14-18 19-18s11 8 13 18c3 9 5-13 6-50 2-97-7-112-71-126-30-7-70-26-91-43s-41-29-44-26c-2 3 7 23 21 44 14 20 26 43 26 50 0 11 38 108 63 161 10 21 12 21 29 5 10-9 18-12 18-7zm-241-80c6-22 9-42 7-44-4-3-46 102-46 116 0 17 29-37 39-72zm281-183c0-19-3-24-9-15-6 10-10 8-14-8s-2-20 9-16c8 3 14-1 14-10 0-11-6-14-22-9-13 4-18 3-12-2 12-8 16-61 6-77-6-11-31 33-32 57 0 9-4 17-8 17-5 0-9 14-10 30-1 26 4 32 29 37 16 3 29 9 29 14s5 9 10 9c6 0 10-12 10-27zm-3-256c2-28 5-68 8-87 5-30 4-32-6-16-14 23-25 156-13 156 5 0 10-24 11-53zm-269-177c37-34 21-117-25-134-9-4-4 6 11 25 33 38 33 50 0 83-42 41-99 28-93-21 1-10-1-26-6-36-5-12-1-24 10-37 10-11 13-20 7-20-20 0-52 43-52 70 0 16 12 40 30 59 36 37 84 42 118 11zm-32-33c4-4 1-7-6-7-11 0-11-3-2-12 15-15 16-28 2-28-5 0-10 7-10 15 0 9-7 18-15 21-8 4-15 10-15 15 0 10 36 7 46-4z"/><path d="m2130 1740c-13-8-13-10 2-10 9 0 20 5 23 10 8 13-5 13-25 0z"/><path d="m2401 3507c-72-18-86-25-102-51-11-18-19-24-20-16 0 9-4 7-11-7-6-13-19-25-29-28-11-4-19-14-19-24 0-14 8-17 40-17 38 1 54-14 30-29-15-9-12-42 5-49 8-3 15-15 15-26 0-18 11-25 34-21 5 1 4-4-2-12-10-11-7-16 14-26 32-14 114-26 114-17 0 4-20 16-45 27s-45 24-45 29c0 6 3 9 8 9 41-7 77 4 102 32 29 30 29 30 48 11 20-20 60-24 65-8 3 15-56 46-103 54-46 8-54 23-18 34 15 4 5 6-27 5-71-2-66 20 14 60 47 23 69 29 86 23 16-6 24-3 34 11 6 11 16 17 21 14 16-10 20 12 5 25-25 21-124 19-214-3zm-3-235c2-7-2-10-12-6-9 3-16 11-16 16 0 13 23 5 28-10z"/><path d="m2570 3341c40-35 55-39 41-12-6 10-25 24-43 30l-33 12z"/><path d="m2824 3289c-3-6-1-16 5-22 8-8 11-5 11 11 0 24-5 28-16 11z"/><path d="m2802 2960c0-19 2-27 5-17 2 9 2 25 0 35-3 9-5 1-5-18z"/><path d="m2296 2911c-10-11-15-24-12-29 11-19 57-20 79-2 18 15 19 20 8 34-18 22-54 20-75-3z"/><path d="m2813 2870c0-30 2-43 4-27 2 15 2 39 0 55-2 15-4 2-4-28z"/><path d="m2590 2540c0-11-5-20-11-20-13 0-8-21 6-23 5-1 10 13 12 31 2 17 2 32-1 32-4 0-6-9-6-20z"/><path d="m2581 2453c0-25 1-26 9-8 12 27 12 35 0 35-5 0-10-12-9-27z"/><path d="m2535 2391c-6-11 9-23 19-14 9 9 7 23-3 23-6 0-12-4-16-9z"/><path d="m4321 1188c1-18 4-44 8-57 6-21 8-22 19-8 11 12 10 22-2 50-8 20-12 38-8 41 3 3 0 6-6 6-7 0-12-14-11-32z"/></g></svg>